<svg width="141" height="46" viewBox="0 0 141 46" fill="none" xmlns="http://www.w3.org/2000/svg">
<g clip-path="url(#clip0_6069_1201)">
<path d="M68.0722 29.5493H65.5886V23.6285H58.7023V29.5493H56.2188V16.2275H58.7023V21.6929H65.5886V16.2275H68.0722V29.5493Z" fill="white"/>
<path d="M73.7184 26.5896C74.5086 27.6144 75.6375 27.7283 77.1051 27.7283C78.234 27.7283 79.5886 27.7283 80.4918 26.5896C80.9433 25.9065 81.282 24.8817 81.282 22.9461C81.282 20.8966 80.9433 19.8718 80.4918 19.3025C79.5886 18.1639 78.234 18.1639 77.1051 18.1639C75.9762 18.1639 74.6215 18.1639 73.7184 19.3025C73.1539 19.9857 72.8152 21.0104 72.8152 22.9461C72.9281 24.7679 73.1539 25.7926 73.7184 26.5896ZM82.4109 17.4807C83.7656 18.8471 83.8785 21.1243 83.8785 22.8322C83.8785 24.3124 83.8785 26.8174 82.4109 28.1837C80.9433 29.55 78.6855 29.55 77.1051 29.55C75.5246 29.55 73.2668 29.55 71.7992 28.1837C70.2187 26.7035 70.2188 24.3124 70.2188 22.8322C70.2188 21.0104 70.3316 18.8471 71.7992 17.4807C73.2668 16.1144 75.4117 16.1144 77.1051 16.1144C78.6855 16.0005 80.9433 16.0005 82.4109 17.4807Z" fill="white"/>
<path d="M93.3597 22.8315C93.9242 22.8315 94.6015 22.8315 94.9402 22.3761C95.3918 21.9206 95.3918 21.0097 95.3918 20.5543C95.3918 19.985 95.3918 19.1879 94.9402 18.7325C94.4886 18.277 93.8113 18.277 93.3597 18.277H89.2957C89.1828 18.277 88.957 18.277 88.7312 18.5048C88.6183 18.7325 88.6183 18.9602 88.6183 19.1879V22.9454H93.3597V22.8315ZM86.1348 29.5493V18.277C86.1348 17.8216 86.1348 17.2523 86.5863 16.7968C87.0379 16.3414 87.6023 16.2275 88.0539 16.2275H94.3758C95.0531 16.2275 96.182 16.2275 96.9722 17.0246C97.8754 17.9355 97.9882 19.4157 97.9882 20.5543C97.9882 21.6929 97.8754 23.4008 96.8593 24.1978C96.4078 24.5394 95.6175 24.7671 94.8273 24.7671H88.6183V29.4355H86.1348V29.5493Z" fill="white"/>
<path d="M102.73 26.5889C102.73 27.1582 102.73 27.2721 102.843 27.386C103.069 27.6137 103.52 27.6137 103.746 27.6137H107.697C108.149 27.6137 108.6 27.6137 109.052 27.2721C109.503 26.8166 109.391 26.1335 109.391 25.678C109.391 25.2226 109.391 24.6533 108.939 24.1978C108.6 23.8563 108.036 23.8563 107.697 23.8563H102.73V26.5889ZM111.423 18.1632H103.633C103.407 18.1632 103.069 18.1632 102.956 18.277C102.73 18.5048 102.73 18.8464 102.73 19.0741V21.8067H109.052C109.729 21.8067 110.745 21.9206 111.423 22.8315C111.874 23.5147 112.1 24.5394 112.1 25.678C112.1 27.386 111.761 28.183 111.423 28.6384C111.084 28.98 110.407 29.5493 109.165 29.5493H102.053C101.375 29.5493 100.924 29.3216 100.698 28.98C100.359 28.6384 100.359 28.0691 100.359 27.7275V18.1632C100.359 17.7077 100.472 17.1384 100.811 16.683C101.037 16.4553 101.488 16.2275 102.166 16.2275H111.536V18.1632H111.423Z" fill="white"/>
<path d="M124.405 29.5495L124.518 19.4158C124.518 19.1881 124.518 18.9604 124.292 18.9604C124.179 18.9604 123.953 19.302 123.84 19.5297L118.421 28.4109C118.083 28.9802 117.631 29.6634 116.277 29.6634C114.357 29.6634 114.357 28.1832 114.357 27.3861V16.2277H116.841V26.1337C116.841 26.4752 116.841 26.703 117.067 26.703C117.18 26.703 117.293 26.4752 117.405 26.2475L122.711 17.4802C123.389 16.3416 124.066 16 124.969 16C127.001 16 127.001 17.7079 127.001 18.3911V29.4356H124.405V29.5495Z" fill="white"/>
<path d="M133.435 29.5493V18.1632H128.242V16.2275H140.999V18.1632H135.919V29.5493H133.435Z" fill="white"/>
<path d="M34.8836 15.3711L29.0133 0.796846C28.223 0.569123 27.4328 0.3414 26.6426 0.227539L33.9804 18.4454L34.8836 15.3711Z" fill="white"/>
<path d="M36.2375 10.4751L32.9637 2.50482C32.1734 2.04938 31.2703 1.7078 30.3672 1.36621L35.4473 13.6632L36.2375 10.4751Z" fill="white"/>
<path d="M34.6582 3.41602L36.8031 8.65364L37.5933 5.69324C36.6902 4.89621 35.6742 4.21305 34.6582 3.41602Z" fill="white"/>
<path d="M33.5284 20.3812L25.2874 0.113861C25.1745 0.113861 25.0616 0.113861 24.9487 0.113861C24.3842 0 23.7069 0 23.1425 0L32.6252 23.4554L33.5284 20.3812Z" fill="white"/>
<path d="M19.7559 0.227723L31.2707 28.4653L32.1738 25.3911L21.7879 0C21.1105 0.113861 20.4332 0.113861 19.7559 0.227723Z" fill="white"/>
<path d="M30.705 30.2868L18.5129 0.455078C17.8355 0.568939 17.1582 0.796662 16.5938 0.910524L29.8019 33.361L30.705 30.2868Z" fill="white"/>
<path d="M45.6082 23.7967C45.6082 22.8858 45.4953 21.8611 45.3824 20.9502L40.7539 37.3462C43.6891 33.7027 45.6082 29.0344 45.6082 23.7967Z" fill="white"/>
<path d="M36.3516 41.6734C37.2547 40.9903 38.1578 40.1932 39.0609 39.3962L45.0441 18.3319C44.7054 17.1932 44.3668 16.0546 43.9152 14.916L36.3516 41.6734Z" fill="white"/>
<path d="M32.3984 43.9501C33.1887 43.6085 33.9789 43.153 34.7691 42.6976L43.123 13.2075C42.6715 12.4105 42.2199 11.4996 41.7683 10.8164L32.3984 43.9501Z" fill="white"/>
<path d="M12.8699 2.27734C12.0797 2.73279 11.2894 3.18823 10.4992 3.64368L2.37109 32.4506C2.82266 33.3615 3.16133 34.1585 3.72578 34.9556L12.8699 2.27734Z" fill="white"/>
<path d="M8.91834 4.66797C8.01521 5.35114 7.11209 6.14817 6.20897 6.9452L0.564453 26.9848C0.790234 28.2373 1.1289 29.3759 1.58047 30.5145L8.91834 4.66797Z" fill="white"/>
<path d="M-0.000546787 22.2034C-0.000546787 22.8866 -0.000546787 23.5698 0.112344 24.2529L4.40218 9.10938C1.57992 12.6391 -0.113437 17.1935 -0.000546787 22.2034Z" fill="white"/>
<path d="M9.14453 35.2969L10.0477 32.2227L9.14453 35.2969Z" fill="white"/>
<path d="M10.5 30.4014L16.4832 45.0895C17.2734 45.3172 18.0637 45.545 18.8539 45.6588L11.4031 27.3271L10.5 30.4014Z" fill="white"/>
<path d="M10.7242 42.4706L8.57929 37.1191L7.78906 40.0795C8.69219 40.8766 9.7082 41.6736 10.7242 42.4706Z" fill="white"/>
<path d="M9.93476 32.2227L9.14453 35.2969L12.4183 43.3811C13.2086 43.8365 14.1117 44.292 15.0148 44.6335L9.93476 32.2227Z" fill="white"/>
<path d="M11.8535 25.5045L20.2074 45.8857C20.3203 45.8857 20.5461 45.8857 20.659 45.8857C21.2234 45.8857 21.7879 45.9996 22.3523 45.9996L12.7566 22.3164L11.8535 25.5045Z" fill="white"/>
<path d="M25.7382 45.8862L14.2234 17.4209L13.3203 20.4952L23.7062 46.0001C24.3836 46.0001 25.0609 45.8862 25.7382 45.8862Z" fill="white"/>
<path d="M14.6758 15.4851L26.9808 45.6584C27.6582 45.5445 28.3355 45.4307 28.9 45.203L15.5789 12.4109L14.6758 15.4851Z" fill="white"/>
</g>
<defs>
<clipPath id="clip0_6069_1201">
<rect width="141" height="46" fill="white"/>
</clipPath>
</defs>
</svg>
